HIERARCHY
ROOT Hips
{
  OFFSET 0.0 0.0 0.0
  CHANNELS 6 Xposition Yposition Zposition Zrotation Xrotation Yrotation
  JOINT Spine
  {
    OFFSET 0 10.0588 -0.358159
    CHANNELS 3 Zrotation Xrotation Yrotation
    JOINT Spine1
    {
      OFFSET 0 11.7428 0
      CHANNELS 3 Zrotation Xrotation Yrotation
      JOINT Spine2
      {
        OFFSET 0 13.4203 0
        CHANNELS 3 Zrotation Xrotation Yrotation
        JOINT Neck
        {
          OFFSET 0 15.0978 0
          CHANNELS 3 Zrotation Xrotation Yrotation
          JOINT Head
          {
            OFFSET 0 8.08558 2.68779
            CHANNELS 3 Zrotation Xrotation Yrotation
            End Site
            {
              OFFSET 0 21.4992 7.1467
            }
          }
        }
        JOINT LeftShoulder
        {
          OFFSET 5.94911 13.2477 -0.0644513
          CHANNELS 3 Zrotation Xrotation Yrotation
          JOINT LeftArm
          {
            OFFSET 0 12.4722 0
            CHANNELS 3 Zrotation Xrotation Yrotation
            JOINT LeftForeArm
            {
              OFFSET 0 23.8149 -0.00137086
              CHANNELS 3 Zrotation Xrotation Yrotation
              JOINT LeftHand
              {
                OFFSET 0 24.5563 1.57681e-05
                CHANNELS 3 Zrotation Xrotation Yrotation
                End Site
                {
                  OFFSET -1.85578 17.3552 -0.291151
                }
              }
            }
          }
        }
        JOINT RightShoulder
        {
          OFFSET -5.94912 13.2478 -0.0672963
          CHANNELS 3 Zrotation Xrotation Yrotation
          JOINT RightArm
          {
            OFFSET 0 12.4722 0
            CHANNELS 3 Zrotation Xrotation Yrotation
            JOINT RightForeArm
            {
              OFFSET 0 23.8199 0.0003812
              CHANNELS 3 Zrotation Xrotation Yrotation
              JOINT RightHand
              {
                OFFSET 1.5349e-05 24.5599 0.000369879
                CHANNELS 3 Zrotation Xrotation Yrotation
                End Site
                {
                  OFFSET 1.86614 17.4983 -0.349753
                }
              }
            }
          }
        }
      }
    }
  }
  JOINT LeftUpLeg
  {
    OFFSET 9.3921 -5.57221 -0.0932128
    CHANNELS 3 Zrotation Xrotation Yrotation
    JOINT LeftLeg
    {
      OFFSET 0 42.3183 1.21018e-05
      CHANNELS 3 Zrotation Xrotation Yrotation
      JOINT LeftFoot
      {
        OFFSET 0 39.0997 -1.20453e-05
        CHANNELS 3 Zrotation Xrotation Yrotation
        JOINT LeftToe
        {
          OFFSET 0 14.7062 0
          CHANNELS 3 Zrotation Xrotation Yrotation
          End Site
          {
            OFFSET 0 5.95384 0
          }
        }
      }
    }
  }
  JOINT RightUpLeg
  {
    OFFSET -9.39211 -5.57221 -0.0152232
    CHANNELS 3 Zrotation Xrotation Yrotation
    JOINT RightLeg
    {
      OFFSET 0 42.326 -1.6593e-05
      CHANNELS 3 Zrotation Xrotation Yrotation
      JOINT RightFoot
      {
        OFFSET -1.39272e-05 39.0933 1.79539e-05
        CHANNELS 3 Zrotation Xrotation Yrotation
        JOINT RightToe
        {
          OFFSET 0 14.5999 0
          CHANNELS 3 Zrotation Xrotation Yrotation
          End Site
          {
            OFFSET 0 6.0364 0
          }
        }
      }
    }
  }
}
MOTION
Frames:	11
Frame Time:	0.0416667
-0.718484 103.097 -0.0171483 2.37533 -5.28814 -15.7362 -0.0365226 -2.03939 0.00113403 7.95139e-16 1.59028e-15 3.18055e-15 7.95139e-16 0 -0 3.97569e-16 2.03924 -0 -5.96354e-16 -1.59028e-15 -6.36111e-15 -107.133 -0.58788 89.8172 -0.0459826 57.8964 -4.13788 -0.117056 6.67845 0.725584 -6.11964 0.844711 1.08585 107.133 -0.614008 -89.8091 7.18955 62.0277 -5.95622 -0.0335941 -1.98629 0.478462 6.12246 0.932117 -1.99833 -174.266 9.77856 -16.9027 0.793645 -23.2817 4.3621 5.13516 45.6085 -6.29912 0.154186 33.2966 -0.280864 175.113 4.20482 19.201 0.419489 -30.9489 4.63474 -19.1428 58.8295 18.0771 0.0329817 33.5225 -0.0597201 
-0.692218 103.268 -0.098696 2.40876 -5.34447 -16.8377 -0.45091 -0.924255 -0.945302 0.191387 -0.190209 0.562778 -0.0559198 0.0549231 -0.405036 0.0971899 2.28908 -0.32641 -0.0467931 -0.0312158 0.896646 -106.58 -1.17628 89.4903 0.185922 58.3906 -3.53305 0.144356 7.29295 0.845079 -6.72055 -0.920163 -0.200222 106.781 -0.627 -88.7044 9.09608 62.5004 -7.33217 -0.715821 -0.910505 0.394426 5.05203 1.33166 -1.30007 -174.007 10.3013 -16.9952 0.18012 -25.7196 4.68779 4.0868 49.5649 -4.29359 0.154186 33.2966 -0.280864 175.151 4.27997 19.6872 -0.884351 -30.7837 3.76271 -16.3999 59.3667 16.0687 0.0329817 33.5225 -0.0597201 
-0.350404 103.691 -0.12909 2.46508 -4.85167 -18.5161 -0.651455 0.147764 -1.67696 0.540496 0.207884 0.907842 0.0317649 0.205882 -0.70535 0.184601 2.57576 -0.529099 -0.219634 0.0649669 1.54892 -106.055 -1.42214 89.3746 0.764968 58.8774 -3.06561 0.937966 8.01362 0.887347 -8.13279 -2.35734 -1.6497 106.623 -0.665588 -87.9362 11.2168 62.7049 -9.47023 -2.62286 -0.325458 0.362648 4.34632 2.28032 -0.368987 -174.003 11.0451 -16.8629 -0.2313 -27.4489 4.7881 2.8317 52.6583 -2.54944 0.154186 33.2966 -0.280864 174.883 4.61733 19.8108 -2.02696 -30.2605 2.82397 -12.349 60.2951 14.2037 0.0329817 33.5225 -0.0597201 
0.225706 103.905 0.0641124 2.28189 -3.89596 -20.544 -0.289685 0.868233 -2.14848 0.981512 0.955589 1.07583 0.158169 0.500626 -0.983951 0.298047 2.88059 -0.557607 -0.457365 0.110553 2.09706 -105.542 -1.2525 89.4379 3.59717 59.146 -4.25192 1.04505 8.23217 1.01718 -9.18735 -2.65778 -2.99933 106.578 -0.686684 -87.633 12.4039 62.0518 -11.3467 -5.39535 -0.419259 0.476811 3.95921 3.83435 0.858269 -174.134 11.6955 -16.6833 -0.099359 -28.3454 5.74853 2.23246 54.6687 -1.66638 0.154186 33.2966 -0.280864 174.658 5.37927 19.8957 -2.38902 -29.9409 1.98441 -10.756 61.1418 13.8844 0.0329817 33.5225 -0.0597201 
0.977304 103.819 0.614078 1.84234 -2.58423 -21.9262 0.634956 1.19701 -2.5932 1.55703 1.71352 0.996904 0.314019 0.808504 -1.33892 0.467951 3.15387 -0.559755 -0.744627 0.109542 2.56454 -104.982 -0.697278 89.5869 9.9492 59.0428 -7.98477 0.0420055 7.83201 1.2409 -8.81715 -1.93863 -4.3377 106.543 -0.669553 -87.6249 11.6951 60.1858 -12.1162 -8.86806 -0.995087 0.657344 3.68014 5.31249 2.74204 -174.549 12.5745 -16.6522 0.787582 -29.3666 8.52038 4.01197 56.4181 -2.38061 0.154186 33.2966 -0.280864 174.594 6.46109 20.0112 -2.12195 -30.2342 1.47808 -10.5956 61.9622 13.985 0.0329817 33.5225 -0.0597201 
1.8524 103.462 1.53855 1.31998 -1.00255 -22.2012 2.01406 0.950383 -3.08662 2.22149 2.32068 0.914964 0.298194 1.18655 -1.87474 0.709841 3.44963 -0.575311 -1.03544 0.195878 3.15648 -104.341 0.11717 89.5943 18.7886 58.0038 -13.3471 0.289193 7.84693 1.31019 -7.49783 -1.6193 -6.17121 106.695 -0.357093 -87.8309 8.7484 56.77 -11.1254 -13.0427 -2.04513 0.931586 3.6167 5.69227 5.58958 -174.933 14.2589 -16.9792 1.87026 -30.8537 11.9522 8.64924 57.1753 -5.7369 0.154186 33.2966 -0.280864 174.44 7.71685 20.2099 -1.36196 -31.3188 1.11726 -10.5916 63.0698 14.044 0.0329817 33.5225 -0.0597201 
2.67758 103.058 2.85784 1.52794 0.510598 -21.6977 3.19748 0.0584531 -3.49708 2.67514 2.30561 0.763465 -0.203274 1.65342 -2.43736 0.882894 3.63565 -0.476485 -0.949933 0.254553 4.44432 -104.022 0.99665 89.3732 28.4925 55.1501 -18.334 2.47352 8.53289 0.994506 -6.51485 -2.30438 -8.75266 107.16 0.0745491 -88.0285 3.7014 51.6471 -8.50759 -17.4335 -3.473 1.07398 4.00267 4.8461 8.9728 -175.212 16.4277 -17.6347 2.33903 -32.398 13.8744 10.4565 56.3383 -6.86502 0.154186 33.2966 -0.280864 173.727 9.03265 20.4426 -0.846469 -32.3604 0.262051 -11.127 63.7861 14.3689 0.0329817 33.5225 -0.0597201 
3.26917 102.919 4.16949 2.42471 1.88615 -21.6834 3.65747 -0.678066 -3.73767 2.58286 1.71202 0.438768 -0.91131 1.75133 -2.62357 0.759722 3.49034 -0.285137 -0.453344 0.308237 6.40179 -104.048 1.39892 88.6916 38.4143 50.0577 -22.2298 5.65196 9.57452 0.312897 -6.00479 -3.50304 -12.1128 107.688 0.491727 -88.0607 -3.01379 45.2189 -4.77724 -21.6958 -4.77172 1.05273 4.84277 2.9925 12.1991 -175.498 18.479 -18.3886 2.08565 -34.3501 13.6661 10.0201 56.3364 -7.37533 0.154186 33.2966 -0.280864 172.831 10.2453 20.6917 -1.15567 -32.5481 -1.2914 -11.6047 63.4273 14.8498 0.0329817 33.5225 -0.0597201 
3.36459 103.147 5.20588 3.33521 2.76539 -23.2994 3.02958 -0.638343 -3.48591 1.81352 1.00843 -0.478694 -1.20032 1.42484 -2.29432 -0.120243 2.89163 0.272385 0.878361 0.425958 8.53444 -103.926 1.5497 88.259 47.0005 42.87 -25.002 8.14948 10.118 -0.309936 -5.31417 -4.96925 -15.8324 108.023 0.728434 -87.5392 -10.7659 37.8757 -1.11867 -26.5145 -6.13457 0.898506 6.06346 0.686557 14.7601 -175.052 20.8329 -19.5086 1.33261 -36.8971 12.2908 8.42625 54.9869 -6.01351 0.154186 33.2966 -0.280864 172.206 10.6302 20.864 -1.66998 -31.1979 -3.44301 -11.6517 62.7854 15.0895 0.0329817 33.5225 -0.0597201 
3.11583 103.537 5.98801 3.72104 3.4828 -24.3597 2.11277 -0.184718 -3.53339 0.593498 0.600296 -1.80749 -1.34795 1.2562 -1.98335 -1.09802 2.47126 0.784632 2.03764 0.492632 10.5197 -103.253 2.0769 88.1143 52.8333 34.1549 -26.6904 9.88087 9.93004 -0.924099 -4.33384 -7.00364 -19.1644 107.932 1.05976 -86.9105 -18.9859 30.0016 2.60908 -31.0695 -7.52212 0.323826 7.3074 -1.94188 16.484 -173.665 24.0686 -20.1613 0.836032 -38.0289 11.7677 7.54907 54.1707 -3.87215 0.154186 33.2966 -0.280864 172.264 9.97893 20.6904 -1.45668 -28.722 -5.05801 -11.7538 61.6243 15.7244 0.0329817 33.5225 -0.0597201 
2.68513 103.866 6.83455 3.86681 3.82743 -24.723 0.928129 0.332189 -3.62308 -0.639703 0.372116 -2.90178 -1.76663 1.33614 -1.77992 -1.8044 2.49776 1.07807 2.6878 0.780741 12.3214 -102.298 3.27217 88.0006 56.7119 24.4541 -27.8979 10.6095 9.34087 -1.28399 -3.32577 -9.3719 -21.6124 107.437 1.64202 -86.5074 -26.4747 21.2768 6.20075 -33.9224 -8.49278 -0.210844 8.3238 -5.08211 17.3325 -171.619 27.7679 -20.6987 0.715109 -37.3382 12.09 7.1672 53.1942 -2.26127 0.154186 33.2966 -0.280864 172.492 8.69617 20.4412 -1.52616 -26.2597 -6.63683 -10.9364 60.607 16.223 0.0329817 33.5225 -0.0597201 
